<?xml version='1.0' encoding='utf-8'?>
<svg xmlns="http://www.w3.org/2000/svg" viewBox="0 0 1063 744.09"> <path d="m1.2e-4 1.2e-4h1063v744.09h-1063z" fill="#ba0000" fill-rule="evenodd"/> <g font-size="12"> <g transform="translate(-8.0776 2.8566)"> <path d="m524.45 357.28s-75.02-32.301-64.255-116c10.421-40.29 28.828-67.727 62.17-82.661 15.629-4.863 31.607-6.947 47.93-8.336-4.284 4.052-7.872 8.104-9.724 13.198-3.59 9.146-0.927 17.945 3.819 26.743 6.02 10.188 9.607 20.723 10.766 34.384 2.199 19.218-6.02 37.743-21.186 48.973-9.61 7.409-20.954 9.956-30.217 18.407-7.177 7.063-11.576 14.126-13.197 26.396-0.232 23.386 6.137 26.629 13.894 38.9z" fill="#fff" fill-rule="evenodd"/> <path d="m510.21 236.18v-0.347" fill="#ba0000" fill-rule="evenodd" stroke="#000" stroke-width="2.9311"/> <path d="m514.95 348.59c-29.176-25.817-26.623-90.762-4.394-112.41" fill="none" stroke="#ba0000" stroke-width="2.9311"/> <path transform="matrix(.13567 -.030684 .026985 .12909 441.38 191.89)" d="m591.041,433.161-57.267-41.685-57.273,41.675 21.948-67.345-57.334-41.592 70.831.064 21.839-67.381 21.828,67.384 70.832-.051-57.341,41.582 21.937,67.349z" fill="#ba0000" fill-rule="evenodd"/> </g> <g transform="matrix(.29302 .95611 -.95611 .29302 710.68 -251.52)"> <path d="m524.45 357.28s-75.02-32.301-64.255-116c10.421-40.29 28.828-67.727 62.17-82.661 15.629-4.863 31.607-6.947 47.93-8.336-4.284 4.052-7.872 8.104-9.724 13.198-3.59 9.146-0.927 17.945 3.819 26.743 6.02 10.188 9.607 20.723 10.766 34.384 2.199 19.218-6.02 37.743-21.186 48.973-9.61 7.409-20.954 9.956-30.217 18.407-7.177 7.063-11.576 14.126-13.197 26.396-0.232 23.386 6.137 26.629 13.894 38.9z" fill="#fff" fill-rule="evenodd"/> <path d="m510.21 236.18v-0.347" fill="#ba0000" fill-rule="evenodd" stroke="#000" stroke-width="2.9311"/> <path d="m514.95 348.59c-29.176-25.817-26.623-90.762-4.394-112.41" fill="none" stroke="#ba0000" stroke-width="2.9311"/> <path transform="matrix(.13567 -.030684 .026985 .12909 441.38 191.89)" d="m591.041,433.161-57.267-41.685-57.273,41.675 21.948-67.345-57.334-41.592 70.831.064 21.839-67.381 21.828,67.384 70.832-.051-57.341,41.582 21.937,67.349z" fill="#ba0000" fill-rule="evenodd"/> </g> <g transform="matrix(-.81354 .5815 -.5815 -.81354 1162.7 346.16)"> <path d="m524.45 357.28s-75.02-32.301-64.255-116c10.421-40.29 28.828-67.727 62.17-82.661 15.629-4.863 31.607-6.947 47.93-8.336-4.284 4.052-7.872 8.104-9.724 13.198-3.59 9.146-0.927 17.945 3.819 26.743 6.02 10.188 9.607 20.723 10.766 34.384 2.199 19.218-6.02 37.743-21.186 48.973-9.61 7.409-20.954 9.956-30.217 18.407-7.177 7.063-11.576 14.126-13.197 26.396-0.232 23.386 6.137 26.629 13.894 38.9z" fill="#fff" fill-rule="evenodd"/> <path d="m510.21 236.18v-0.347" fill="#ba0000" fill-rule="evenodd" stroke="#000" stroke-width="2.9311"/> <path d="m514.95 348.59c-29.176-25.817-26.623-90.762-4.394-112.41" fill="none" stroke="#ba0000" stroke-width="2.9311"/> <path transform="matrix(.13567 -.030684 .026985 .12909 441.38 191.89)" d="m591.041,433.161-57.267-41.685-57.273,41.675 21.948-67.345-57.334-41.592 70.831.064 21.839-67.381 21.828,67.384 70.832-.051-57.341,41.582 21.937,67.349z" fill="#ba0000" fill-rule="evenodd"/> </g> <g transform="matrix(-.78657 -.6175 .6175 -.78657 718.45 973.57)"> <path d="m524.45 357.28s-75.02-32.301-64.255-116c10.421-40.29 28.828-67.727 62.17-82.661 15.629-4.863 31.607-6.947 47.93-8.336-4.284 4.052-7.872 8.104-9.724 13.198-3.59 9.146-0.927 17.945 3.819 26.743 6.02 10.188 9.607 20.723 10.766 34.384 2.199 19.218-6.02 37.743-21.186 48.973-9.61 7.409-20.954 9.956-30.217 18.407-7.177 7.063-11.576 14.126-13.197 26.396-0.232 23.386 6.137 26.629 13.894 38.9z" fill="#fff" fill-rule="evenodd"/> <path d="m510.21 236.18v-0.347" fill="#ba0000" fill-rule="evenodd" stroke="#000" stroke-width="2.9311"/> <path d="m514.95 348.59c-29.176-25.817-26.623-90.762-4.394-112.41" fill="none" stroke="#ba0000" stroke-width="2.9311"/> <path transform="matrix(.13567 -.030684 .026985 .12909 441.38 191.89)" d="m591.041,433.161-57.267-41.685-57.273,41.675 21.948-67.345-57.334-41.592 70.831.064 21.839-67.381 21.828,67.384 70.832-.051-57.341,41.582 21.937,67.349z" fill="#ba0000" fill-rule="evenodd"/> </g> <g transform="matrix(.32107 -.94705 .94705 .32107 10.959 749.1)"> <path d="m524.45 357.28s-75.02-32.301-64.255-116c10.421-40.29 28.828-67.727 62.17-82.661 15.629-4.863 31.607-6.947 47.93-8.336-4.284 4.052-7.872 8.104-9.724 13.198-3.59 9.146-0.927 17.945 3.819 26.743 6.02 10.188 9.607 20.723 10.766 34.384 2.199 19.218-6.02 37.743-21.186 48.973-9.61 7.409-20.954 9.956-30.217 18.407-7.177 7.063-11.576 14.126-13.197 26.396-0.232 23.386 6.137 26.629 13.894 38.9z" fill="#fff" fill-rule="evenodd"/> <path d="m510.21 236.18v-0.347" fill="#ba0000" fill-rule="evenodd" stroke="#000" stroke-width="2.9311"/> <path d="m514.95 348.59c-29.176-25.817-26.623-90.762-4.394-112.41" fill="none" stroke="#ba0000" stroke-width="2.9311"/> <path transform="matrix(.13567 -.030684 .026985 .12909 441.38 191.89)" d="m591.041,433.161-57.267-41.685-57.273,41.675 21.948-67.345-57.334-41.592 70.831.064 21.839-67.381 21.828,67.384 70.832-.051-57.341,41.582 21.937,67.349z" fill="#ba0000" fill-rule="evenodd"/> </g> </g> </svg>